<?xml version="1.0" encoding="UTF-8"?>
<svg id="Layer_1" data-name="Layer 1" xmlns="http://www.w3.org/2000/svg" viewBox="0 0 1000 1000">
  <defs>
    <style>
      .cls-1 {
        fill: none;
        stroke: #c69a0e;
        stroke-miterlimit: 10;
        stroke-width: 3px;
      }
    </style>
  </defs>
  <path class="cls-1" d="M306.46,568.74v-163.38h1.47v-37.42h1.88v-14.53h-28.65v14.53h1.88v37.42h1.49v160.53c3.59.26,17.48,2.18,21.92,2.84Z"/>
  <path class="cls-1" d="M488.7,608.95c-33.58-51.39-97.2-76.22-103.04-78.14-4.76-1.56-5.89-.85-5.89,2.99-.01,47.45-.02,94.9.16,142.35,0,1.45,1.64,3.45,3.33,4.25,58.79,18.41,105,66.25,106.7,67.22,1.93.6,1.8-2.74,1.81-4.11.12-21.05.08-42.1.09-63.15,0-20.68.13-41.37-.13-62.05-.04-3.15-1.02-6.63-3.04-9.37Z"/>
  <path class="cls-1" d="M422.76,715.28c-19.77-11.46-41.4-20.8-62.87-30.28-3.82-1.69-4.92-3.21-4.88-6.17.49-34.42,2.41-109.39,1.84-112.38-.29-1.52-1.86-3.57-3.62-4.17-8.19-2.82-16.66-5.2-25-7.78-3.36-1.04-4.53-.1-4.53,2.38,0,17.02-.09,34.04-.11,51.06-.02,20.2-.04,40.41,0,60.61.03,11.43.46,22.87.15,34.3-.09,3.45,1.5,4.95,5.63,5.62,4.98.81,10.08,1.39,14.91,2.55,11.59,2.77,23.28,5.44,34.53,8.86,14.9,4.53,29.64,9.42,44.05,14.75,12.36,4.57,24.13,10.01,36.23,14.97,7.93,2.97,3.12-4.23,2.45-4.92-10.9-11.25-24.04-20.85-38.79-29.4Z"/>
  <path class="cls-1" d="M431.22,752.48c-10.15-4.43-63.8-29.14-121.25-35.35-7.41-.33-8.8-2.41-8.87-7.04-.18-11.91-.24-120.17-.18-124.05.04-2.75-1.72-4.28-5.5-4.61-5.06-.44-10.18-.73-15.13-1.55-6.71-1.11-7.59-.81-7.59,4.25-.02,24.22,0,48.44,0,72.66h-.03c0,5.72,0,11.44,0,17.16,0,18.87.06,37.73-.08,56.6-.03,3.2,1.39,4.74,5.85,4.85,4.28.11,43.7-.79,96.36,10.05,9.81,2.02,41.07,8.87,47.52,10.26,2.98.64,6.02,1.17,9.06,1.59,6.77.93,4.46-2.81-.14-4.82Z"/>
  <polygon class="cls-1" points="498.3 620.92 498.34 621.03 498.38 621.11 498.44 620.98 498.32 620.9 498.3 620.92"/>
  <path class="cls-1" d="M366.95,512.17c0-4.74,1.26-5.62,6.59-3.69,2.78,1.01,12.09,5.01,29.74,13.9v-168.96h-83.87v181.54c.24.07.46.12.72.22,7.02,2.58,32.27,11.86,46.82,17.38,0-13.08,0-26.45,0-40.39Z"/>
  <path class="cls-1" d="M715.46,565.9v-160.53h1.49v-37.42h1.88v-14.53h-28.65v14.53h1.88v37.42h1.47v163.38c4.45-.67,18.33-2.58,21.92-2.84Z"/>
  <path class="cls-1" d="M620.07,676.15c.18-47.45.18-94.9.16-142.35,0-3.83-1.12-4.55-5.89-2.99-5.85,1.92-69.47,26.75-103.04,78.14-2.02,2.74-3,6.22-3.04,9.37-.26,20.68-.13,41.37-.13,62.05,0,21.05-.03,42.1.09,63.15,0,1.37-.12,4.72,1.81,4.11,1.7-.97,47.91-48.82,106.7-67.22,1.69-.8,3.33-2.8,3.33-4.25Z"/>
  <path class="cls-1" d="M621.19,719.89c11.25-3.42,22.94-6.09,34.53-8.86,4.84-1.16,9.93-1.73,14.91-2.55,4.13-.67,5.72-2.17,5.63-5.62-.32-11.43.12-22.87.15-34.3.05-20.2.03-40.41,0-60.61-.02-17.02-.1-34.04-.11-51.06,0-2.48-1.17-3.42-4.53-2.38-8.35,2.58-16.81,4.96-25,7.78-1.76.6-3.33,2.65-3.62,4.17-.57,2.98,1.35,77.95,1.84,112.38.04,2.96-1.06,4.48-4.88,6.17-21.48,9.49-43.11,18.82-62.87,30.28-14.74,8.55-27.88,18.15-38.79,29.4-.67.69-5.48,7.9,2.45,4.92,12.1-4.97,23.87-10.4,36.23-14.97,14.41-5.33,29.15-10.22,44.05-14.75Z"/>
  <path class="cls-1" d="M727.35,673.96c0-5.72,0-11.44,0-17.16h-.03c0-24.22.01-48.44,0-72.66,0-5.07-.88-5.37-7.59-4.25-4.95.82-10.07,1.1-15.13,1.55-3.78.33-5.53,1.87-5.5,4.61.05,3.88,0,112.14-.18,124.05-.07,4.64-1.47,6.72-8.87,7.04-57.45,6.22-111.11,30.92-121.25,35.35-4.6,2.01-6.91,5.75-.14,4.82,3.04-.42,6.08-.95,9.06-1.59,6.46-1.39,37.71-8.24,47.52-10.26,52.66-10.84,92.08-9.94,96.36-10.05,4.46-.11,5.88-1.65,5.85-4.85-.14-18.86-.08-37.73-.08-56.6Z"/>
  <polygon class="cls-1" points="501.56 620.98 501.62 621.11 501.66 621.03 501.7 620.92 501.68 620.9 501.56 620.98"/>
  <path class="cls-1" d="M633.05,512.17c0,13.94,0,27.31,0,40.39,14.54-5.52,39.8-14.8,46.82-17.38.26-.09.48-.15.72-.22v-181.54h-83.87v168.96c17.64-8.89,26.96-12.89,29.74-13.9,5.33-1.93,6.59-1.05,6.59,3.69Z"/>
  <path class="cls-1" d="M610.26,262.53v-7.69c0-53.07-83.91-90.38-105.42-99.07-2.24-2.2-3.71-5.17-4.33-6.7,1.04-.24,1.83-1.12,1.83-2.24s-.82-2.03-1.89-2.25c-.04-.02-.12-.02-.12-.02-.05,0-.09-.03-.14-.03l-.04-2.27c.75-.07,1.35-.69,1.35-1.46s-.62-1.43-1.4-1.48l-.09-4.91-.09,4.91c-.78.05-1.4.68-1.4,1.48s.6,1.39,1.35,1.46l-.04,2.27s-.09.02-.14.03c0,0-.08,0-.12.02-1.07.21-1.89,1.12-1.89,2.25s.79,2,1.83,2.24c-.63,1.53-2.09,4.5-4.33,6.7-21.51,8.69-105.42,46.01-105.42,99.07v7.69h220.52Z"/>
  <polygon class="cls-1" points="644.33 279.65 645.89 270.87 500 270.87 354.11 270.87 355.67 279.65 249.82 279.65 256.42 301.09 257.17 303.57 257.19 303.61 257.6 304.93 262.87 304.93 269.88 328.27 274.6 344.04 500 344.04 725.4 344.04 730.12 328.27 737.13 304.93 742.4 304.93 742.81 303.61 742.83 303.57 743.58 301.09 750.18 279.65 644.33 279.65"/>
  <path class="cls-1" d="M561.25,542.35c10.29-7.02,20.3-12.82,29.32-17.53v-171.4h-181.13v171.4c9.02,4.71,19.03,10.51,29.32,17.53,1.69,1.15,3.38,2.31,5.09,3.47v-105.18c0-26.2,52.93-55.03,55.11-56.21l1.06-.55,1.06.55c2.18,1.18,55.11,30.01,55.11,56.21v105.18c1.7-1.16,3.4-2.32,5.09-3.47Z"/>
  <path class="cls-1" d="M529.65,564.81c3.9-3.54,7.86-6.77,11.86-9.78v-109.41c0-20.02-38.93-41.28-40.6-42.18l-.91-.5-.91.5c-1.67.9-40.6,22.16-40.6,42.18v109.41c3.99,3.01,7.96,6.24,11.86,9.78v-15.16h59.3v15.16ZM500,494.08h-29.65v-43.27c0-14.36,27.59-29.42,28.74-30.06l.91-.47.91.47c1.15.64,28.74,15.71,28.74,30.06v43.27h-29.65Z"/>
</svg>